<svg data-v-fde0c5aa="" xmlns="http://www.w3.org/2000/svg" viewBox="0 0 300 300" class="iconLeft"><!----><defs data-v-fde0c5aa=""><!----></defs><rect data-v-fde0c5aa="" fill="#FFFFFF" x="0" y="0" width="300px" height="300px" class="logo-background-square"></rect><defs data-v-fde0c5aa=""><!----></defs><g data-v-fde0c5aa="" id="cb71c6c6-6db2-4aea-abb8-9c3f217b3cfe" fill="#000000" transform="matrix(5.189270387163912,0,0,5.189270387163912,128.8152429051348,104.07495633126828)"><path d="M4.47 13.92L4.47 13.92Q3.19 13.92 2.30 13.17Q1.40 12.42 1.00 11.31Q0.60 10.19 0.60 8.85L0.60 8.85Q0.60 7.57 1.02 6.45Q1.43 5.32 2.33 4.55Q3.23 3.78 4.47 3.78L4.47 3.78Q5.60 3.78 6.29 4.31Q6.99 4.84 7.49 5.75L7.49 5.75L6.02 6.59Q5.36 5.36 4.47 5.36L4.47 5.36Q3.72 5.36 3.23 5.93Q2.73 6.50 2.53 7.25Q2.34 7.99 2.34 8.85L2.34 8.85Q2.34 10.29 2.88 11.31Q3.43 12.33 4.47 12.33L4.47 12.33Q5.22 12.33 5.62 11.83Q6.02 11.33 6.02 10.51L6.02 10.51L6.02 10.30L4.31 10.30L4.31 8.74L7.73 8.74L7.73 10.09Q7.73 11.90 6.82 12.91Q5.91 13.92 4.47 13.92ZM13.05 13.92L13.05 13.92Q11.86 13.92 10.91 13.23Q9.95 12.54 9.56 11.40L9.56 11.40L11.07 10.84Q11.40 11.52 11.96 11.94Q12.53 12.35 13.19 12.35L13.19 12.35Q13.83 12.35 14.22 12.01Q14.62 11.68 14.62 11.05L14.62 11.05Q14.62 10.51 14.08 10.10Q13.55 9.69 12.60 9.27L12.60 9.27Q12.00 9.00 11.63 8.81Q11.27 8.61 10.82 8.26Q10.36 7.91 10.14 7.43Q9.91 6.96 9.91 6.37L9.91 6.37Q9.91 5.28 10.75 4.53Q11.58 3.78 12.94 3.78L12.94 3.78Q14.01 3.78 14.82 4.37Q15.62 4.96 15.89 5.87L15.89 5.87L14.39 6.37Q13.89 5.35 12.84 5.35L12.84 5.35Q12.29 5.35 11.94 5.63Q11.59 5.91 11.59 6.40L11.59 6.40Q11.59 6.51 11.62 6.62Q11.65 6.72 11.72 6.81Q11.79 6.90 11.85 6.98Q11.91 7.06 12.05 7.15Q12.18 7.24 12.27 7.29Q12.36 7.35 12.54 7.44Q12.73 7.53 12.82 7.57Q12.92 7.62 13.15 7.72Q13.37 7.83 13.47 7.87L13.47 7.87Q14.06 8.13 14.45 8.37Q14.84 8.60 15.32 8.97Q15.79 9.35 16.04 9.87Q16.30 10.39 16.30 11.00L16.30 11.00Q16.30 12.35 15.35 13.13Q14.41 13.92 13.05 13.92ZM20.72 13.75L18.31 13.75L18.31 3.95L20.78 3.95Q21.73 3.95 22.50 4.23Q23.27 4.51 23.78 4.97Q24.29 5.43 24.63 6.07Q24.98 6.71 25.13 7.40Q25.28 8.09 25.28 8.85L25.28 8.85Q25.28 9.55 25.14 10.22Q25.00 10.89 24.67 11.54Q24.33 12.19 23.82 12.68Q23.31 13.16 22.51 13.45Q21.71 13.75 20.72 13.75L20.72 13.75ZM19.98 5.52L19.98 12.18L20.89 12.18Q21.60 12.18 22.14 11.89Q22.68 11.59 22.97 11.10Q23.27 10.60 23.41 10.03Q23.55 9.46 23.55 8.85L23.55 8.85Q23.55 7.48 22.92 6.50Q22.29 5.52 21.04 5.52L21.04 5.52L19.98 5.52Z"></path></g><defs data-v-fde0c5aa=""><!----></defs><g data-v-fde0c5aa="" id="adcbfe8a-12ec-4b8d-bba7-29f97d6aa89f" stroke="none" fill="#000000" transform="matrix(0.2416163162114528,0,0,0.2416163162114528,39.195417685449726,109.73101505487223)"><path d="M97.07 3.33h139.19c25.78 0 49.22 10.54 66.21 27.53C319.46 47.84 330 71.28 330 97.07v139.19c0 25.78-10.54 49.22-27.53 66.21-16.98 16.99-40.43 27.53-66.21 27.53H97.07c-25.79 0-49.22-10.54-66.21-27.53-16.99-16.98-27.53-40.43-27.53-66.21V97.07c0-25.79 10.54-49.22 27.53-66.21C47.84 13.87 71.28 3.33 97.07 3.33zm106.58 84.03c2.09-3.65 6.76-4.91 10.41-2.81a7.624 7.624 0 012.81 10.41l-87.19 151c-2.09 3.65-6.76 4.91-10.41 2.81a7.624 7.624 0 01-2.81-10.41l87.19-151.01zm32.61-68.72H97.07c-21.56 0-41.17 8.83-55.39 23.04C27.46 55.9 18.64 75.51 18.64 97.07v139.19c0 21.56 8.83 41.17 23.04 55.38 14.22 14.22 33.83 23.04 55.39 23.04h139.19c21.56 0 41.17-8.82 55.38-23.04 14.22-14.22 23.04-33.82 23.04-55.38V97.07c0-21.56-8.82-41.17-23.04-55.39-14.22-14.22-33.82-23.04-55.38-23.04z"></path></g><!----></svg>